<svg width="1817" height="747" xmlns="http://www.w3.org/2000/svg" xmlns:xlink="http://www.w3.org/1999/xlink"><defs><path d="M48 160v-56h10l38 56h53l-44-60a51 51 0 0024-19 49 49 0 009-28 52 52 0 00-15-36c-5-5-11-9-18-12S89 1 80 1H1v159h47zm29-96H49V40h28c4 0 7 1 9 4 2 2 3 5 3 8s-1 6-3 8c-2 3-5 4-9 4zm142 96v-60h48v60h48V1h-48v60h-48V1h-47v159h47zm217-1V88l53-88h-48l-28 52-29-52h-47l52 88v71h47zm126 0l7-88 25 88h41l25-88 7 88h51L694 0h-54l-26 87-25-87h-54l-23 159h50zm301 1v-40h-75V99h67V61h-67V41h75V1H741v159h122zm70 0v-56h10l38 56h53l-44-60a51 51 0 0024-19 49 49 0 009-28 52 52 0 00-15-36c-5-5-11-9-18-12s-16-4-25-4h-79v159h47zm29-96h-28V40h28c4 0 7 1 9 4 2 2 3 5 3 8s-1 6-3 8c-2 3-5 4-9 4z" id="a"/></defs><g fill="none" fill-rule="evenodd"><ellipse fill="#FFDD41" cx="908.5" cy="341" rx="908.5" ry="309.5"/><g fill="#000" fill-rule="nonzero"><path d="M444 571h1c9 0 18 2 25 5a54 54 0 0130 31 60 60 0 01-4 52 55 55 0 01-26 22l46 66h-55l-40-61h-11v61h-50V571h84zm-4 43h-30v27h30c4 0 8-1 10-4l3-9c0-4-1-7-3-9-2-3-6-5-10-5zM590 747v-66h51v66h50V571h-50v66h-51v-66h-50v176zM817 746v-79l54-97h-49l-30 58-30-58h-49l54 97v79zM949 746l7-97 26 97h43l26-97 7 97h53l-25-176h-56l-27 97-26-97h-56l-25 176zM1265 747v-44h-78v-23h70v-42h-70v-23h78v-44h-128v176zM1372 571h1c9 0 18 2 25 5a54 54 0 0130 31 60 60 0 01-4 52 55 55 0 01-26 22l46 66h-55l-40-61h-11v61h-50V571h84zm-4 43h-30v27h30c4 0 8-1 10-4l3-9c0-4-1-7-3-9-2-3-6-5-10-5z"/></g><g transform="translate(385 546)"><mask id="b" fill="#fff"><use xlink:href="#a"/></mask><use fill="#FF43CC" fill-rule="nonzero" xlink:href="#a"/><path fill="#29FFAC" mask="url(#b)" d="M1 159v-278l790 279z"/></g><g fill-rule="nonzero"><g fill="#000"><path d="M216 460c4 0 6-3 6-10 0-6 4-15 11-29a621 621 0 0165-95c13-17 26-31 37-42a3845 3845 0 00-23 87c-2 9-2 16-2 21 0 13 3 24 9 34 7 9 15 14 24 14 6 0 12-3 20-8 7-6 16-12 24-20a442 442 0 0051-54 783 783 0 0032-43c0-4-1-8-3-11-2-4-4-6-6-6l-4 2a423 423 0 01-29 34 1056 1056 0 01-59 61c-5 4-9 6-11 6-3 0-5-4-5-12l4-30a438 438 0 0132-98l-3-8c-1-4-3-7-6-10l-9-7c-3-2-6-3-10-3-3 0-9 4-19 12-9 9-20 19-31 32a961 961 0 00-72 92 996 996 0 0144-122 1707 1707 0 0184-177 378 378 0 0127-42l-2-8-7-10-8-7-10-3c-4 0-7 2-10 6-4 4-9 13-17 26a1466 1466 0 00-82 164 3499 3499 0 00-52 123 628 628 0 00-23 77 96 96 0 0012 44l11 15c4 3 7 5 10 5z"/><path d="M591 245l7 2 6 4 5 6 2 5-1 3c-7 7-15 19-25 36l-23 46-2 3-5 10c15-8 28-13 40-18 12-4 22-7 30-7 4 0 7 2 9 5l3 9c0 3-1 4-2 4-12 0-26 4-42 11-17 8-35 17-54 29a2701 2701 0 01-60 106c-11 14-21 26-31 35s-19 14-29 14a42 42 0 01-29-11 37 37 0 01-11-26c0-7 3-15 10-24l27-30a516 516 0 0183-65 1484 1484 0 0032-58 1041 1041 0 01-54 57l-24 20c-8 5-14 7-20 7-9 0-17-2-22-8-5-5-8-12-8-20l4-11a277 277 0 0118-38 935 935 0 0134-51c3-2 6-3 10-3 3 0 6 0 8 2a36 36 0 0114 11l2 5-1 2-12 16a479 479 0 00-35 68l1 1 11-9a786 786 0 0051-54 12678 12678 0 0073-80c3-3 6-4 10-4zM474 439a471 471 0 00-67 66c-4 5-5 10-5 14 0 3 0 5 2 6l3 2c3 0 7-3 11-7l16-19a436 436 0 0040-62z"/><path d="M566 548c3 0 5-2 5-7l3-22 9-30a641 641 0 0131-73 469 469 0 0145-55 1152 1152 0 0176-75c7-5 11-7 14-7 1 0 2 1 2 3s-1 7-4 13a242 242 0 01-30 50l-21 27a224 224 0 00-38 20l-12 12c-3 4-4 9-4 14 0 2 2 4 6 7 3 3 9 5 16 5s13-2 20-5a152 152 0 0038-29l17-20a381 381 0 0178-18l7-2c0-2-1-5-4-7-3-3-5-5-8-5l-22 3-37 8c8-14 15-27 19-40 5-13 8-22 8-29l-3-10-6-9-9-6c-4-2-7-3-11-3-3 0-7 2-12 5l-18 13a429 429 0 00-42 35l8-8 6-8 3-5-2-5-6-6-8-5-8-2c-4 0-7 1-9 4l-19 24a1137 1137 0 00-100 181c-5 13-7 22-7 28s1 11 3 15l8 13 9 8 9 3z"/><path d="M809 443c4 0 6-3 6-8 0-4 3-10 10-20a392 392 0 0157-64l32-28a2147 2147 0 00-20 59l-2 14c0 8 3 16 9 22 6 7 13 10 21 10 4 0 10-2 17-6 7-3 14-8 21-13a357 357 0 0045-36 588 588 0 0028-29c0-3-1-5-3-8-1-2-3-3-5-3l-3 1a316 316 0 01-25 23 820 820 0 01-53 41l-10 4c-2 0-3-3-3-8l3-20a238 238 0 0128-66l-2-6-6-6-8-5-8-2c-3 0-9 3-18 9a405 405 0 00-63 54c-12 11-22 22-31 33a257 257 0 0146-70c1-1 0-3-1-5l-6-7-8-5-8-2c-4 0-9 3-13 8-5 4-10 11-15 18a268 268 0 00-26 50 277 277 0 00-11 36c0 5 1 10 3 14 1 4 4 8 6 11 3 3 5 6 8 7l8 3z"/><path d="M1091 277c8 0 14 2 20 5s12 7 16 12l10 16c2 6 3 11 3 17l-3 12-7 18c13-2 26-4 37-8 12-4 20-8 26-14l2-1c2 0 5 1 6 4 2 2 3 4 3 7s-3 7-8 10a241 241 0 01-79 24 242 242 0 01-36 45c-7 6-15 11-22 14-8 4-15 6-23 6s-15-1-21-3l-14-8-8-12-2-14 2-11a132 132 0 0113-29l7-13-2-12c0-7 3-15 9-22 5-8 12-15 20-21s17-12 26-16 18-6 25-6zm-53 98l-8 21c-2 7-4 14-4 19 1 6 2 9 5 9 5 0 11-4 19-12 9-9 17-18 25-30l-20-2c-6-1-12-2-17-5zm67-78c-8 0-16 2-24 5a113 113 0 00-38 27c-4 4-6 8-6 11s2 6 4 8l12 6 17 4 21 1c6-10 12-20 16-30s6-17 6-23-3-9-8-9z"/><path d="M1283 255c5 0 10 1 14 3 5 2 9 4 12 7l8 9 2 10-3 19c-3 7-5 13-9 19l-12 15c-5 5-9 7-14 7l-8-2-6-5-5-5-1-5c0-3 1-4 4-4s6-2 10-6l11-14 9-16 3-11-1-2c-5 0-12 3-20 9a182 182 0 00-42 43c-5 8-8 14-8 17 0 4 2 8 6 13l15 16a787 787 0 0194-35l17-3c4 0 8 1 10 4 3 2 4 4 4 6 0 3-2 5-5 5l-20 3a250 250 0 00-56 21l-30 15 8 13 3 13c0 8-3 15-9 22s-13 13-21 18-17 9-26 12c-8 3-16 4-21 4l-12-3-11-7-8-10c-2-4-3-7-3-11s2-9 5-13c3-5 7-9 13-14l19-14 23-13a530 530 0 01-26-38l-3-11c0-4 2-9 5-15s7-11 12-17a189 189 0 0156-45c7-3 12-4 17-4zm-48 147c-14 8-26 16-36 24-10 7-15 13-15 16l2 1 12-3a149 149 0 0034-20c5-4 7-8 7-11 0-1-1-4-4-7zM1419 260c5 0 7-2 7-5 0-2 1-6 5-11a120 120 0 0125-29c5-4 9-5 12-5 4 0 6-2 6-6l-3-10a54 54 0 00-19-20c-4-3-8-4-12-4-5 0-9 2-13 6l-9 13a148 148 0 00-15 39l-3 17c0 4 2 8 7 11 4 3 8 4 12 4z"/><path d="M1362 431c5 0 10-2 17-5l21-14a406 406 0 0063-53l9-9 2-4c0-3-1-5-3-8s-4-4-6-4l-2 1a320 320 0 01-26 23 828 828 0 01-53 42l-9 5c-2 0-3-1-3-4a256 256 0 0125-56 742 742 0 0135-53l-2-5a40 40 0 00-16-12l-9-2c-4 0-7 1-10 4l-10 13a401 401 0 00-53 108c0 9 3 17 9 23 6 7 13 10 21 10z"/><path d="M1561 216c5 0 10 1 14 3 5 2 9 4 12 7l8 9 2 10-3 19c-3 7-5 13-9 19l-12 15c-5 5-9 7-14 7l-8-2-6-5-5-5-1-5c0-3 1-4 4-4s6-2 10-6l11-14 9-16 3-11-1-2c-5 0-12 3-20 9a182 182 0 00-42 43c-5 8-8 14-8 17 0 4 2 8 6 13l15 16a787 787 0 0194-35l17-3c4 0 8 1 10 4 3 2 4 4 4 6 0 3-2 5-5 5l-20 3a250 250 0 00-56 21l-30 15 8 13 3 13c0 8-3 15-9 22s-13 13-21 18-17 9-26 12c-8 3-16 4-21 4l-12-3-11-7-8-10c-2-4-3-7-3-11s2-9 5-13c3-5 7-9 13-14l19-14 23-13a530 530 0 01-26-38l-3-11c0-4 2-9 5-15s7-11 12-17a189 189 0 0156-45c7-3 12-4 17-4zm-48 147c-14 8-26 16-36 24-10 7-15 13-15 16l2 1 12-3a149 149 0 0034-20c5-4 7-8 7-11 0-1-1-4-4-7z"/></g><g fill="#FFF"><path d="M250 505c4 0 6-3 6-9 0-5 3-15 10-27a579 579 0 0161-89c12-16 24-29 34-39a3583 3583 0 00-21 81c-2 8-2 15-2 20 0 12 3 22 9 31s14 13 22 13c5 0 11-2 18-7s15-11 23-19a413 413 0 0047-50 730 730 0 0030-41c0-3 0-6-2-10-2-3-4-5-6-5s-3 1-3 2a394 394 0 01-27 31 985 985 0 01-56 57c-5 4-8 6-10 6-3 0-4-4-4-11l3-28a408 408 0 0130-92l-3-7-6-9-8-7-9-3c-3 0-9 4-18 12a896 896 0 00-96 115 928 928 0 0141-113 1591 1591 0 0179-166 352 352 0 0124-39c0-2 0-5-2-8-1-3-3-6-6-8l-8-7-9-3c-3 0-7 2-9 5l-16 24a1366 1366 0 00-76 154 3261 3261 0 00-49 114 585 585 0 00-22 73 89 89 0 0011 41l11 13 9 5z"/><path d="M599 304l7 2 6 4 4 5 2 5-1 3c-7 6-14 17-23 33l-28 55c13-7 26-12 37-16s20-6 28-6c3 0 6 1 8 4l3 8c0 3-1 4-2 4-11 0-24 3-39 10-16 7-33 16-50 27a2526 2526 0 01-56 99c-10 14-19 25-29 33-9 9-18 13-27 13a39 39 0 01-27-11 34 34 0 01-10-24c0-6 3-13 9-22s15-18 25-28a480 480 0 0178-60 1388 1388 0 0029-55 971 971 0 01-50 53c-8 8-15 14-23 19-7 5-13 7-17 7-9 0-16-3-21-8s-7-11-7-18l3-11a260 260 0 0117-35 874 874 0 0132-48c2-2 5-3 9-3 2 0 5 0 7 2a33 33 0 0113 10l2 5-1 2-11 15a448 448 0 00-33 63l1 2 11-9a733 733 0 0047-50 11825 11825 0 0068-76c2-2 5-3 9-3zM490 485a439 439 0 00-62 62c-3 5-5 9-5 13l2 6 3 1c3 0 6-2 11-6l14-18a407 407 0 0037-58z"/><path d="M576 587c3 0 5-2 5-6l3-21 8-28a599 599 0 0129-68 439 439 0 0143-52 1076 1076 0 0171-70c6-4 10-7 12-7s2 1 2 3c0 3-1 7-4 13a226 226 0 01-28 46l-19 25a209 209 0 00-36 19l-11 11c-2 4-4 9-4 13 0 2 2 5 6 7 3 3 8 4 15 4 6 0 12-1 19-4 6-2 12-6 18-11l17-16 16-19a355 355 0 0173-16l6-2c0-2-1-5-3-7-3-3-5-4-8-4l-20 2-35 7c8-13 14-25 18-37 5-12 7-20 7-27l-2-9c-1-3-3-6-6-8l-9-6c-3-2-6-3-10-3-2 0-6 1-11 4l-17 12a401 401 0 00-39 34l7-8 6-7 3-5-2-5-6-5-7-5-7-2c-4 0-7 1-9 4l-18 22a1062 1062 0 00-93 169c-4 12-7 21-7 27 0 5 1 10 3 14l7 11 9 8 8 3z"/><path d="M803 490c4 0 6-2 6-7 0-4 3-10 9-19a366 366 0 0154-60l29-26a2007 2007 0 00-18 55c-2 5-2 9-2 13 0 8 2 15 8 21 5 6 12 9 20 9 4 0 9-2 15-5l20-13a334 334 0 0042-34 550 550 0 0026-27c0-2 0-4-2-7-2-2-3-3-5-3l-3 1a296 296 0 01-24 21 767 767 0 01-49 39l-9 3c-2 0-3-2-3-7l3-19a222 222 0 0126-62l-2-5-5-5-8-5-8-2c-3 0-8 3-16 8a379 379 0 00-59 51c-11 10-21 21-29 31a240 240 0 0143-65c0-2 0-4-2-6l-5-6-7-4-8-2c-4 0-8 2-12 7a251 251 0 00-38 64 259 259 0 00-11 33c0 5 1 9 3 13l6 11c2 3 5 5 8 6 2 2 5 3 7 3z"/><path d="M1066 334c7 0 13 1 19 4s10 7 14 12c4 4 7 9 9 15 2 5 4 10 4 15l-3 12-7 17c13-2 24-4 35-8 11-3 18-7 24-13l2-1c2 0 4 1 5 4l3 6c0 4-3 7-8 10l-19 9a223 223 0 01-54 14 226 226 0 01-33 41c-7 6-14 10-21 14-7 3-14 5-21 5-8 0-14-1-19-3-6-2-10-4-13-8-4-3-6-7-8-11l-2-13 2-10a124 124 0 0112-27l7-12-2-12c0-6 2-13 8-20 5-7 11-14 19-20 7-5 15-10 24-14 8-4 16-6 23-6zm-49 92l-8 19-3 18c0 5 2 8 5 8 4 0 10-4 17-11 8-8 15-17 23-28l-18-2c-6 0-11-2-16-4zm62-73c-7 0-15 2-22 5a105 105 0 00-35 24c-4 5-6 8-6 11s1 5 4 7c2 3 6 4 11 6l15 3 20 2c6-10 11-19 14-28 4-9 6-17 6-22s-2-8-7-8z"/><path d="M1245 314c5 0 9 1 13 3l11 6c3 3 6 6 7 9l3 9-3 18-9 18-11 14c-4 4-8 6-13 6l-7-2c-3-1-5-2-6-4l-4-5-2-5c0-2 1-3 4-3s6-2 10-6l10-13 8-15 3-10-1-2c-5 0-11 3-19 8a170 170 0 00-39 41c-5 7-7 12-7 15 0 4 2 7 6 12l13 15a734 734 0 0188-32l16-3c4 0 7 1 10 3 2 2 3 5 3 7s-1 4-4 4c-5 0-12 0-19 2a233 233 0 00-53 20l-28 14 8 13 3 12c0 7-3 14-8 20-6 7-13 12-20 17-8 5-16 8-24 11-9 3-15 4-20 4-4 0-8-1-11-3l-11-6-7-10c-2-3-3-7-3-10 0-4 1-8 4-12 3-5 7-9 12-13l18-13 22-13a496 496 0 01-25-35l-2-10c0-4 1-9 4-14a177 177 0 0164-58c6-3 12-4 16-4zm-44 137c-14 8-25 16-34 23s-14 12-14 15l2 1 11-3a139 139 0 0031-19c5-4 7-7 7-10l-3-7zM1371 319c5 0 7-2 7-5l4-10a112 112 0 0124-27c4-3 8-5 11-5 4 0 5-2 5-5l-2-10a50 50 0 00-18-18c-4-3-8-4-11-4-5 0-9 2-12 5l-9 13a138 138 0 00-14 36l-3 16c0 4 3 8 7 10 4 3 8 4 11 4z"/><path d="M1318 478c5 0 10-2 16-5l20-13a377 377 0 0058-49l9-8 1-4c0-3 0-5-2-8l-6-3-2 1a297 297 0 01-24 22 770 770 0 01-49 38l-9 5-2-4 3-12a239 239 0 0120-40 690 690 0 0133-49c0-2-1-3-3-5a37 37 0 00-14-11l-9-2c-4 0-7 1-9 4a374 374 0 00-59 113c0 8 3 15 9 21 5 6 12 9 19 9z"/><path d="M1504 277c5 0 9 1 13 3l11 6c3 3 6 6 7 9l3 9-3 18-9 18-11 14c-4 4-8 6-13 6l-7-2c-3-1-5-2-6-4l-4-5-2-5c0-2 1-3 4-3s6-2 10-6l10-13 8-15 3-10-1-2c-5 0-11 3-19 8a170 170 0 00-39 41c-5 7-7 12-7 15 0 4 2 7 6 12l13 15a734 734 0 0188-32l16-3c4 0 7 1 10 3 2 2 3 5 3 7s-1 4-4 4c-5 0-12 0-19 2a233 233 0 00-53 20l-28 14 8 13 3 12c0 7-3 14-8 20-6 7-13 12-20 17-8 5-16 8-24 11-9 3-15 4-20 4-4 0-8-1-11-3l-11-6-7-10c-2-3-3-7-3-10 0-4 1-8 4-12 3-5 7-9 12-13l18-13 22-13a496 496 0 01-25-35l-2-10c0-4 1-9 4-14a177 177 0 0164-58c6-3 12-4 16-4zm-44 137c-14 8-25 16-34 23s-14 12-14 15l2 1 11-3a139 139 0 0031-19c5-4 7-7 7-10l-3-7z"/></g></g><g fill-rule="nonzero"><path d="M1470 619l6-2 5-4c2-1 3-3 4-6a21 21 0 000-14c-1-3-2-5-4-6l-5-4a13 13 0 00-12 0l-5 4c-2 1-3 3-4 6a21 21 0 000 14c1 3 2 5 4 6l5 4 6 2zm46 5c10 0 18-1 24-4 7-3 12-7 16-13 4-5 7-11 9-19s3-16 3-25v-70h-60v32h27v38c0 9-1 16-5 20-3 5-7 7-14 7h-13v34h13zm114-1c8 0 15-1 21-4 7-2 12-5 16-9a39 39 0 0013-29c0-6-2-12-5-17-3-4-6-9-11-12l-15-9a320 320 0 00-26-12c-3-2-5-3-5-5l2-3 3-2 5-3 5-1c6 0 11 2 15 4l9 10 20-19c-5-7-12-13-19-17-8-5-16-7-25-7a48 48 0 00-33 13 41 41 0 00-13 29c0 7 2 12 5 17l11 12 15 8a451 451 0 0026 12c4 2 5 3 5 5l-1 3-4 3-6 3h-7c-6 0-12-1-17-4-5-2-9-6-11-9l-20 19 9 10a66 66 0 0025 12l13 2z" fill="#000"/><path d="M1456 591l6-1a17 17 0 009-9 16 16 0 000-13 17 17 0 00-9-9 16 16 0 00-13 0 17 17 0 00-9 9 16 16 0 000 13 17 17 0 009 9l7 1zm45 4c9 0 17-2 24-4a41 41 0 0025-27c2-7 3-14 3-22v-59h-60v27h27v32c0 8-2 14-5 18-3 3-8 5-14 5h-13v30h13zm115 0c8 0 15-1 21-3l16-8c4-4 8-8 10-12s3-9 3-14-1-10-4-14l-12-10-15-8a353 353 0 00-27-10c-3-2-4-3-4-5l1-2 4-2 4-2 5-1c7 0 12 1 16 4l9 8 20-16a57 57 0 00-78-10c-4 3-7 7-9 12-2 4-3 9-3 13 0 6 1 10 4 14s7 8 12 11l15 7a501 501 0 0026 10c3 1 5 3 5 4l-2 3-4 3-5 1-7 1c-6 0-12-1-17-3-5-3-9-5-11-9l-21 17 10 8a69 69 0 0038 13z" fill="#12A8FF"/></g></g></svg>